<svg xmlns="http://www.w3.org/2000/svg" xmlns:xlink="http://www.w3.org/1999/xlink" width="151.988" height="148.737" viewBox="0 0 151.988 148.737">
  <defs>
    <clipPath id="clip-path">
      <path id="Clip_2" data-name="Clip 2" d="M0,0H142.054V142.92H0Z" transform="translate(0 0.091)" fill="none"/>
    </clipPath>
    <clipPath id="clip-path-2">
      <path id="Clip_5" data-name="Clip 5" d="M71.027,0C31.8,0,0,31.993,0,71.459H0c0,39.466,31.8,71.46,71.027,71.46h0c39.227,0,71.027-31.994,71.027-71.46h0" transform="translate(0 0.092)" fill="none"/>
    </clipPath>
    <clipPath id="clip-path-4">
      <path id="Clip_11" data-name="Clip 11" d="M71.027,0C31.8,0,0,31.993,0,71.459H0c0,39.466,31.8,71.46,71.027,71.46h0c39.227,0,71.027-31.994,71.027-71.46h0C142.054,31.993,110.255,0,71.027,0Z" transform="translate(0 0.092)" fill="none"/>
    </clipPath>
    <clipPath id="clip-path-5">
      <path id="Clip_15" data-name="Clip 15" d="M9.135,27.056s4.1,17.648,4.424,19.164h0C13.882,47.736,0,56.544,0,56.544H0s18.644,2.137,30.985-1.581h0c12.34-3.719,37.392-15.281,37.392-15.281h0s-5.741.181-18.153-1.37h0C37.811,36.761,31.518,0,31.518,0h0" transform="translate(0.088 0.429)" fill="none"/>
    </clipPath>
  </defs>
  <g id="Vazio" transform="translate(-104 -235.926)">
    <g id="illustration" transform="translate(104 235)">
      <g id="Group_3" data-name="Group 3" transform="translate(0 0.835)">
        <path id="Clip_2-2" data-name="Clip 2" d="M0,0H142.054V142.92H0Z" transform="translate(0 0.091)" fill="none"/>
        <g id="Group_3-2" data-name="Group 3" clip-path="url(#clip-path)">
          <path id="Fill_1" data-name="Fill 1" d="M142.054,71.46c0,39.467-31.8,71.46-71.027,71.46S0,110.927,0,71.46,31.8,0,71.027,0s71.027,31.994,71.027,71.46" transform="translate(0 0.091)" fill="#e7e7e7"/>
        </g>
      </g>
      <g id="Group_13" data-name="Group 13" transform="translate(0 0.835)">
        <g id="Group_6" data-name="Group 6">
          <path id="Clip_5-2" data-name="Clip 5" d="M71.027,0C31.8,0,0,31.993,0,71.459H0c0,39.466,31.8,71.46,71.027,71.46h0c39.227,0,71.027-31.994,71.027-71.46h0" transform="translate(0 0.092)" fill="none"/>
          <g id="Group_6-2" data-name="Group 6" clip-path="url(#clip-path-2)">
            <path id="Fill_4" data-name="Fill 4" d="M71.437,5.42C60.65,1.286,43.7-10.083,23.666,21.441c-8.794,13.838,0,20.672-9.246,33.075s-19,25.84-8.218,37.209S-3.557,108.78.552,118.082s24.142,26.873,51.366,1.551,38.011-15.5,53.934-31.008,8.732-29.974,2.054-39.276S99.992,23.912,93.525,16.273C81.711,2.32,71.437,5.42,71.437,5.42" transform="translate(10.634 11.092)" fill="#9969d3"/>
          </g>
        </g>
        <g id="Group_9" data-name="Group 9">
          <path id="Clip_8-2" data-name="Clip 8" d="M71.027,0C31.8,0,0,31.993,0,71.459H0c0,39.466,31.8,71.46,71.027,71.46h0c39.227,0,71.027-31.994,71.027-71.46h0" transform="translate(0 0.092)" fill="none"/>
          <g id="Group_9-2" data-name="Group 9" clip-path="url(#clip-path-2)">
            <path id="Fill_7" data-name="Fill 7" d="M115.132,2.032c16.6,3.144,40.42,52.078,48.074,72.822L130.53,85.736,7.5,112.478S-8.88,57.9,6.772,37.224C31.155,5.02,79.386-4.74,115.132,2.032" transform="translate(35.359 100.485)" fill="#ff8d8d"/>
          </g>
        </g>
        <g id="Group_12" data-name="Group 12">
          <path id="Clip_11-2" data-name="Clip 11" d="M71.027,0C31.8,0,0,31.993,0,71.459H0c0,39.466,31.8,71.46,71.027,71.46h0c39.227,0,71.027-31.994,71.027-71.46h0C142.054,31.993,110.255,0,71.027,0Z" transform="translate(0 0.092)" fill="none"/>
          <g id="Group_12-2" data-name="Group 12" clip-path="url(#clip-path-4)">
            <path id="Fill_10" data-name="Fill 10" d="M31.519,0s6.292,36.762,18.706,38.313,15.109,1.276,15.109,1.276S46.121,50.911,33.779,54.631,0,56.544,0,56.544s14.419-9.873,12.545-15.952c-.456-1.481-3.409-13.535-3.409-13.535Z" transform="translate(64.509 60.614)" fill="#ffcbdf"/>
          </g>
        </g>
      </g>
      <g id="Group_16" data-name="Group 16" transform="translate(64.422 61.02)">
        <path id="Clip_15-2" data-name="Clip 15" d="M9.135,27.056s4.1,17.648,4.424,19.164h0C13.882,47.736,0,56.544,0,56.544H0s18.644,2.137,30.985-1.581h0c12.34-3.719,37.392-15.281,37.392-15.281h0s-5.741.181-18.153-1.37h0C37.811,36.761,31.518,0,31.518,0h0" transform="translate(0.088 0.429)" fill="none"/>
        <g id="Group_16-2" data-name="Group 16" clip-path="url(#clip-path-5)">
          <path id="Fill_14" data-name="Fill 14" d="M0,14.989S-.019,64.3,25.759,59.315c25.134-4.859,14.035-49.71,14.035-49.71C26.03-2.748,6.647-5.393,0,14.989" transform="translate(-16.544 -19.537)" fill="#0c0065"/>
        </g>
      </g>
      <g id="Group_80" data-name="Group 80" transform="translate(0 0.835)">
        <g id="Group_19" data-name="Group 19">
          <path id="Clip_18-2" data-name="Clip 18" d="M71.027,0C31.8,0,0,31.993,0,71.459H0c0,39.466,31.8,71.46,71.027,71.46h0c39.227,0,71.027-31.994,71.027-71.46h0" transform="translate(0 0.092)" fill="none"/>
          <g id="Group_19-2" data-name="Group 19" clip-path="url(#clip-path-2)">
            <path id="Fill_17" data-name="Fill 17" d="M0,16.766S5.711,75.89,35.125,66.043c21.426-7.174,11.08-60,11.08-60C29.864-6.08,3.493,1.341,0,16.766" transform="translate(43.823 28.999)" fill="#ffcbdf"/>
          </g>
        </g>
        <g id="Group_22" data-name="Group 22">
          <path id="Clip_21-2" data-name="Clip 21" d="M71.027,0C31.8,0,0,31.993,0,71.459H0c0,39.466,31.8,71.46,71.027,71.46h0c39.227,0,71.027-31.994,71.027-71.46h0C142.054,31.993,110.255,0,71.027,0Z" transform="translate(0 0.092)" fill="none"/>
          <g id="Group_22-2" data-name="Group 22" clip-path="url(#clip-path-4)">
            <path id="Stroke_20" data-name="Stroke 20" d="M0,16.766S5.774,76.077,35.125,66.043c20.912-7.15,11.08-60,11.08-60C29.864-6.08,3.493,1.341,0,16.766Z" transform="translate(43.823 28.999)" fill="none" stroke="#9969d3" stroke-linecap="round" stroke-linejoin="round" stroke-miterlimit="10" stroke-width="1"/>
          </g>
        </g>
        <g id="Group_25" data-name="Group 25">
          <path id="Clip_24-2" data-name="Clip 24" d="M71.027,0C31.8,0,0,31.993,0,71.459H0c0,39.466,31.8,71.46,71.027,71.46h0c39.227,0,71.027-31.994,71.027-71.46h0" transform="translate(0 0.092)" fill="none"/>
          <g id="Group_25-2" data-name="Group 25" clip-path="url(#clip-path-2)">
            <path id="Fill_23" data-name="Fill 23" d="M2.05,1.768c.357,1.128.234,2.175-.275,2.338S.562,3.487.2,2.36-.029.186.48.022,1.693.64,2.05,1.768" transform="translate(56.119 64.217)" fill="#9969d3"/>
          </g>
        </g>
        <g id="Group_28" data-name="Group 28">
          <path id="Clip_27-2" data-name="Clip 27" d="M71.027,0C31.8,0,0,31.993,0,71.459H0c0,39.466,31.8,71.46,71.027,71.46h0c39.227,0,71.027-31.994,71.027-71.46h0" transform="translate(0 0.092)" fill="none"/>
          <g id="Group_28-2" data-name="Group 28" clip-path="url(#clip-path-2)">
            <path id="Stroke_26" data-name="Stroke 26" d="M0,0,1.031,14.8,7.3,12.793" transform="translate(65.526 63.859)" fill="none" stroke="#9969d3" stroke-linecap="round" stroke-linejoin="round" stroke-miterlimit="10" stroke-width="1.508"/>
          </g>
        </g>
        <g id="Group_31" data-name="Group 31">
          <path id="Clip_30-2" data-name="Clip 30" d="M71.027,0C31.8,0,0,31.993,0,71.459H0c0,39.466,31.8,71.46,71.027,71.46h0c39.227,0,71.027-31.994,71.027-71.46h0" transform="translate(0 0.092)" fill="none"/>
          <g id="Group_31-2" data-name="Group 31" clip-path="url(#clip-path-2)">
            <path id="Fill_29" data-name="Fill 29" d="M2.05,1.768c.357,1.128.234,2.175-.276,2.338S.562,3.487.2,2.36-.029.185.48.022,1.693.64,2.05,1.768" transform="translate(75.715 59.979)" fill="#9969d3"/>
          </g>
        </g>
        <g id="Group_34" data-name="Group 34">
          <path id="Clip_33-2" data-name="Clip 33" d="M71.027,0C31.8,0,0,31.993,0,71.459H0c0,39.466,31.8,71.46,71.027,71.46h0c39.227,0,71.027-31.994,71.027-71.46h0" transform="translate(0 0.092)" fill="none"/>
          <g id="Group_34-2" data-name="Group 34" clip-path="url(#clip-path-2)">
            <path id="Stroke_32" data-name="Stroke 32" d="M0,2.295S2.38-1.74,5.653.891" transform="translate(51.597 55.776)" fill="none" stroke="#9969d3" stroke-linecap="round" stroke-linejoin="round" stroke-miterlimit="10" stroke-width="1.508"/>
          </g>
        </g>
        <g id="Group_37" data-name="Group 37">
          <path id="Clip_36-2" data-name="Clip 36" d="M71.027,0C31.8,0,0,31.993,0,71.459H0c0,39.466,31.8,71.46,71.027,71.46h0c39.227,0,71.027-31.994,71.027-71.46h0" transform="translate(0 0.092)" fill="none"/>
          <g id="Group_37-2" data-name="Group 37" clip-path="url(#clip-path-2)">
            <path id="Stroke_35" data-name="Stroke 35" d="M0,2.295S2.381-1.74,5.654.891" transform="translate(72.484 51.124)" fill="none" stroke="#9969d3" stroke-linecap="round" stroke-linejoin="round" stroke-miterlimit="10" stroke-width="1.508"/>
          </g>
        </g>
        <g id="Group_40" data-name="Group 40">
          <path id="Clip_39-2" data-name="Clip 39" d="M71.027,0C31.8,0,0,31.993,0,71.459H0c0,39.466,31.8,71.46,71.027,71.46h0c39.227,0,71.027-31.994,71.027-71.46h0" transform="translate(0 0.092)" fill="none"/>
          <g id="Group_40-2" data-name="Group 40" clip-path="url(#clip-path-2)">
            <path id="Stroke_38" data-name="Stroke 38" d="M0,2.5s1.813,1.873,3.541.909A9.457,9.457,0,0,0,6.526,0" transform="translate(75.858 86.481) rotate(180)" fill="none" stroke="#9969d3" stroke-linecap="round" stroke-linejoin="round" stroke-miterlimit="10" stroke-width="1.508"/>
          </g>
        </g>
        <g id="Group_43" data-name="Group 43">
          <path id="Clip_42-2" data-name="Clip 42" d="M71.027,0C31.8,0,0,31.993,0,71.459H0c0,39.466,31.8,71.46,71.027,71.46h0c39.227,0,71.027-31.994,71.027-71.46h0" transform="translate(0 0.092)" fill="none"/>
          <g id="Group_43-2" data-name="Group 43" clip-path="url(#clip-path-2)">
            <path id="Fill_41" data-name="Fill 41" d="M11.606,9.9c.649,5.815-1.4,10.819-4.568,11.177S.769,17.011.12,11.2,1.517.378,4.688.02s6.268,4.065,6.917,9.88" transform="translate(89.006 44.198)" fill="#ffcbdf"/>
          </g>
        </g>
        <g id="Group_46" data-name="Group 46">
          <path id="Clip_45-2" data-name="Clip 45" d="M71.027,0C31.8,0,0,31.993,0,71.459H0c0,39.466,31.8,71.46,71.027,71.46h0c39.227,0,71.027-31.994,71.027-71.46h0" transform="translate(0 0.092)" fill="none"/>
          <g id="Group_46-2" data-name="Group 46" clip-path="url(#clip-path-2)">
            <path id="Stroke_44" data-name="Stroke 44" d="M0,7.863S.606-.17,3.152,0" transform="translate(94.477 51.859)" fill="none" stroke="#9969d3" stroke-linecap="round" stroke-linejoin="round" stroke-miterlimit="10" stroke-width="1"/>
          </g>
        </g>
        <g id="Group_49" data-name="Group 49">
          <path id="Clip_48-2" data-name="Clip 48" d="M71.027,0C31.8,0,0,31.993,0,71.459H0c0,39.466,31.8,71.46,71.027,71.46h0c39.227,0,71.027-31.994,71.027-71.46h0" transform="translate(0 0.092)" fill="none"/>
          <g id="Group_49-2" data-name="Group 49" clip-path="url(#clip-path-2)">
            <path id="Fill_47" data-name="Fill 47" d="M49.666,22.035s-2.221-1.246-8.787-8.528A67.73,67.73,0,0,1,36.1,7.72s-5.034,9.009-11.408,12.4-6.4-5.635-6.4-5.635-3.043,5.868-7.067,8.216S0,26.549,0,26.549,2.358,6.3,10.142,2.285,43.956.4,47.172,2.244c12.755,7.334,2.494,19.791,2.494,19.791" transform="translate(41.424 24.009)" fill="#9969d3"/>
          </g>
        </g>
        <g id="Group_52" data-name="Group 52">
          <path id="Clip_51-2" data-name="Clip 51" d="M71.027,0C31.8,0,0,31.993,0,71.459H0c0,39.466,31.8,71.46,71.027,71.46h0c39.227,0,71.027-31.994,71.027-71.46h0" transform="translate(0 0.092)" fill="none"/>
          <g id="Group_52-2" data-name="Group 52" clip-path="url(#clip-path-2)">
            <path id="Stroke_50" data-name="Stroke 50" d="M15.41,0S3.6,9.3,0,18.6" transform="translate(34.814 21.68)" fill="none" stroke="#fff" stroke-linecap="round" stroke-linejoin="round" stroke-miterlimit="10" stroke-width="1"/>
          </g>
        </g>
        <g id="Group_55" data-name="Group 55">
          <path id="Clip_54-2" data-name="Clip 54" d="M71.027,0C31.8,0,0,31.993,0,71.459H0c0,39.466,31.8,71.46,71.027,71.46h0c39.227,0,71.027-31.994,71.027-71.46h0" transform="translate(0 0.092)" fill="none"/>
          <g id="Group_55-2" data-name="Group 55" clip-path="url(#clip-path-2)">
            <path id="Stroke_53" data-name="Stroke 53" d="M0,0S8.218,8.269,9.759,14.987" transform="translate(112.377 58.373)" fill="none" stroke="#fff" stroke-linecap="round" stroke-linejoin="round" stroke-miterlimit="10" stroke-width="1"/>
          </g>
        </g>
        <g id="Group_58" data-name="Group 58">
          <path id="Clip_57-2" data-name="Clip 57" d="M71.027,0C31.8,0,0,31.993,0,71.459H0c0,39.466,31.8,71.46,71.027,71.46h0c39.227,0,71.027-31.994,71.027-71.46h0" transform="translate(0 0.092)" fill="none"/>
          <g id="Group_58-2" data-name="Group 58" clip-path="url(#clip-path-2)">
            <path id="Stroke_56" data-name="Stroke 56" d="M4.7,8.269C-.955,3.1.073,0,.073,0" transform="translate(18.817 95.582)" fill="none" stroke="#fff" stroke-linecap="round" stroke-linejoin="round" stroke-miterlimit="10" stroke-width="1"/>
          </g>
        </g>
        <g id="Group_61" data-name="Group 61">
          <path id="Clip_60-2" data-name="Clip 60" d="M71.027,0C31.8,0,0,31.993,0,71.459H0c0,39.466,31.8,71.46,71.027,71.46h0c39.227,0,71.027-31.994,71.027-71.46h0" transform="translate(0 0.092)" fill="none"/>
          <g id="Group_61-2" data-name="Group 61" clip-path="url(#clip-path-2)">
            <path id="Fill_59" data-name="Fill 59" d="M.149,2.006S5.157-.182,9.14.012s7.265,7.219,5.7,7.231C-2.531,7.381.149,2.006.149,2.006" transform="translate(51.561 136.401)" fill="#ffcbdf"/>
          </g>
        </g>
        <g id="Group_64" data-name="Group 64">
          <path id="Clip_63-2" data-name="Clip 63" d="M71.027,0C31.8,0,0,31.993,0,71.459H0c0,39.466,31.8,71.46,71.027,71.46h0c39.227,0,71.027-31.994,71.027-71.46h0" transform="translate(0 0.092)" fill="none"/>
          <g id="Group_64-2" data-name="Group 64" clip-path="url(#clip-path-2)">
            <path id="Fill_62" data-name="Fill 62" d="M8.76,0S3.782,2.256,1.245,5.351.591,13,2.1,13.415c.754.2,6.772-4.047,8.248-7.453S8.76,0,8.76,0" transform="translate(124.631 103.573)" fill="#ffcbdf"/>
          </g>
        </g>
        <g id="Group_67" data-name="Group 67">
          <path id="Clip_66-2" data-name="Clip 66" d="M71.027,0C31.8,0,0,31.993,0,71.459H0c0,39.466,31.8,71.46,71.027,71.46h0c39.227,0,71.027-31.994,71.027-71.46h0" transform="translate(0 0.092)" fill="none"/>
          <g id="Group_67-2" data-name="Group 67" clip-path="url(#clip-path-2)">
            <path id="Stroke_65" data-name="Stroke 65" d="M0,0S3.521,10.624,10.2,12.174" transform="translate(77.522 31.729)" fill="none" stroke="#9969d3" stroke-linecap="round" stroke-linejoin="round" stroke-miterlimit="10" stroke-width="1"/>
          </g>
        </g>
        <g id="Group_70" data-name="Group 70">
          <path id="Clip_69-2" data-name="Clip 69" d="M71.027,0C31.8,0,0,31.993,0,71.459H0c0,39.466,31.8,71.46,71.027,71.46h0c39.227,0,71.027-31.994,71.027-71.46h0" transform="translate(0 0.092)" fill="none"/>
          <g id="Group_70-2" data-name="Group 70" clip-path="url(#clip-path-2)">
            <path id="Stroke_68" data-name="Stroke 68" d="M0,3.044c14.9-9.3,28.252,5.685,28.252,5.685s7.19-4.134,15.41,1.55" transform="translate(53.819 7.784)" fill="none" stroke="#9969d3" stroke-linecap="round" stroke-linejoin="round" stroke-miterlimit="10" stroke-width="1"/>
          </g>
        </g>
        <g id="Group_73" data-name="Group 73">
          <path id="Clip_72-2" data-name="Clip 72" d="M71.027,0C31.8,0,0,31.993,0,71.459H0c0,39.466,31.8,71.46,71.027,71.46h0c39.227,0,71.027-31.994,71.027-71.46h0" transform="translate(0 0.092)" fill="none"/>
          <g id="Group_73-2" data-name="Group 73" clip-path="url(#clip-path-2)">
            <path id="Stroke_71" data-name="Stroke 71" d="M21.459,0S24.027,11.886,9.13,20.671C-1.588,26.993-3.2,51.162,6.049,54.263" transform="translate(9.246 50.104)" fill="none" stroke="#9969d3" stroke-linecap="round" stroke-linejoin="round" stroke-miterlimit="10" stroke-width="1"/>
          </g>
        </g>
        <g id="Group_76" data-name="Group 76">
          <path id="Clip_75-2" data-name="Clip 75" d="M71.027,0C31.8,0,0,31.993,0,71.459H0c0,39.466,31.8,71.46,71.027,71.46h0c39.227,0,71.027-31.994,71.027-71.46h0" transform="translate(0 0.092)" fill="none"/>
          <g id="Group_76-2" data-name="Group 76" clip-path="url(#clip-path-2)">
            <path id="Stroke_74" data-name="Stroke 74" d="M0,0S5.651,16.537,14.9,24.806c9.443,8.445,7.191,31.524-4.623,36.175" transform="translate(108.268 39.251)" fill="none" stroke="#9969d3" stroke-linecap="round" stroke-linejoin="round" stroke-miterlimit="10" stroke-width="1"/>
          </g>
        </g>
        <g id="Group_79" data-name="Group 79">
          <path id="Clip_78-2" data-name="Clip 78" d="M71.027,0C31.8,0,0,31.993,0,71.459H0c0,39.466,31.8,71.46,71.027,71.46h0c39.227,0,71.027-31.994,71.027-71.46h0" transform="translate(0 0.092)" fill="none"/>
          <g id="Group_79-2" data-name="Group 79" clip-path="url(#clip-path-2)">
            <path id="Stroke_77" data-name="Stroke 77" d="M0,.044S12.938,2.756,25.951,0" transform="translate(64.51 117.115)" fill="none" stroke="#9969d3" stroke-linecap="round" stroke-linejoin="round" stroke-miterlimit="10" stroke-width="1"/>
          </g>
        </g>
      </g>
      <g id="Group_113" data-name="Group 113" transform="translate(27.609 83.243)">
        <path id="Fill_81" data-name="Fill 81" d="M12.586,7.332S9.435.493,7.621.041C3.872-.892-2.35,14.469.918,16.062,4.331,17.725,9.405,6.31,9.405,6.31Z" transform="translate(14.695 49.688)" fill="#ffcbdf"/>
        <path id="Fill_83" data-name="Fill 83" d="M10.106,7.681S9.934.573,7.41.034,1.876,5.579.469,10.01s.643,6.717,2.285,7.244c2.2.707,7.351-9.573,7.351-9.573" transform="translate(9.034 47.809)" fill="#ffcbdf"/>
        <path id="Fill_85" data-name="Fill 85" d="M10.182,6.8S9.6-.714,6.93.055s-9.737,13.69-5.723,16.335S10.182,6.8,10.182,6.8" transform="translate(3.898 46.797)" fill="#ffcbdf"/>
        <path id="Fill_87" data-name="Fill 87" d="M8.062,4.3S7.589-1,5.33.169-.116,6.286,0,9.307s1.462,6.437,3.867,3.956C5.316,11.771,8.062,4.3,8.062,4.3" transform="translate(0.047 46.017)" fill="#ffcbdf"/>
        <path id="Stroke_89" data-name="Stroke 89" d="M7.621.041C3.872-.892-2.35,14.469.918,16.061,4.331,17.724,9.405,6.31,9.405,6.31" transform="translate(14.695 49.689)" fill="none" stroke="#9969d3" stroke-linecap="round" stroke-linejoin="round" stroke-miterlimit="10" stroke-width="1"/>
        <path id="Stroke_91" data-name="Stroke 91" d="M6.93,0C4.927.578.451,7.989.031,12.775c-.139,1.6.171,2.9,1.175,3.56,0,0,2.052,1.744,3.857-1.112" transform="translate(3.897 46.852)" fill="none" stroke="#9969d3" stroke-linecap="round" stroke-linejoin="round" stroke-miterlimit="10" stroke-width="1"/>
        <path id="Stroke_93" data-name="Stroke 93" d="M5.33,0C3.071,1.173-.116,6.117,0,9.139s1.461,6.437,3.867,3.955" transform="translate(0.047 46.186)" fill="none" stroke="#9969d3" stroke-linecap="round" stroke-linejoin="round" stroke-miterlimit="10" stroke-width="1"/>
        <path id="Stroke_95" data-name="Stroke 95" d="M5.492,15.422S3.869,17.7,2.753,17.254A4.182,4.182,0,0,1,.469,15.1a7.009,7.009,0,0,1,0-5.085C1.875,5.58,4.885-.506,7.41.034" transform="translate(9.034 47.809)" fill="none" stroke="#9969d3" stroke-linecap="round" stroke-linejoin="round" stroke-miterlimit="10" stroke-width="1"/>
        <path id="Fill_97" data-name="Fill 97" d="M2.19,9.654S-.72,2.707.169,1.052C2-2.365,17.487,3.337,16.458,6.842,15.385,10.5,3.579,6.6,3.579,6.6Z" transform="translate(102.203 14.567)" fill="#ffcbdf"/>
        <path id="Fill_99" data-name="Fill 99" d="M4.022,8.178S-1.089,3.269.212,1.026s7.8-.388,12.005,1.546,4.507,5,3.791,6.573c-.962,2.116-11.986-.968-11.986-.968" transform="translate(104.723 8.952)" fill="#ffcbdf"/>
        <path id="Fill_101" data-name="Fill 101" d="M3.391,7.3S-1.741,1.814.622.344,17.239,2.306,16.485,7.073,3.391,7.3,3.391,7.3" transform="translate(107.363 4.788)" fill="#ffcbdf"/>
        <path id="Fill_103" data-name="Fill 103" d="M2.019,5.148S-1.565,1.227.818.334,8.979.4,11.121,2.517s3.75,5.419.306,5.54c-2.069.072-9.409-2.908-9.409-2.908" transform="translate(110.345 0.292)" fill="#ffcbdf"/>
        <path id="Stroke_105" data-name="Stroke 105" d="M0,1.052C1.836-2.365,17.318,3.336,16.29,6.841,15.217,10.5,3.41,6.6,3.41,6.6" transform="translate(102.372 14.567)" fill="none" stroke="#9969d3" stroke-linecap="round" stroke-linejoin="round" stroke-miterlimit="10" stroke-width="1"/>
        <path id="Stroke_107" data-name="Stroke 107" d="M0,.344C1.772-.759,10.234.9,14.035,3.8c1.267.969,2.016,2.077,1.828,3.269,0,0-.1,2.7-3.413,2.124" transform="translate(107.985 4.787)" fill="none" stroke="#9969d3" stroke-linecap="round" stroke-linejoin="round" stroke-miterlimit="10" stroke-width="1"/>
        <path id="Stroke_109" data-name="Stroke 109" d="M0,.334C2.383-.559,8.162.4,10.3,2.516s3.75,5.419.306,5.54" transform="translate(111.162 0.292)" fill="none" stroke="#9969d3" stroke-linecap="round" stroke-linejoin="round" stroke-miterlimit="10" stroke-width="1"/>
        <path id="Stroke_111" data-name="Stroke 111" d="M12.606,9.951s2.769.328,3.19-.806a4.221,4.221,0,0,0-.05-3.153,6.947,6.947,0,0,0-3.74-3.42C7.8.638,1.3-1.216,0,1.026" transform="translate(104.935 8.952)" fill="none" stroke="#9969d3" stroke-linecap="round" stroke-linejoin="round" stroke-miterlimit="10" stroke-width="1"/>
      </g>
    </g>
  </g>
</svg>
